<svg xmlns="http://www.w3.org/2000/svg" viewBox="0 0 64 64">
  <defs><linearGradient id="g" x1="0" y1="0" x2="1" y2="1"><stop stop-color="#2457d6"/><stop offset="1" stop-color="#102a6b"/></linearGradient></defs>
  <rect width="64" height="64" rx="16" fill="url(#g)"/>
  <path d="M18 24h28l-2.7 25H20.7L18 24Z" fill="#fff" opacity=".96"/>
  <path d="M25 25v-4a7 7 0 0 1 14 0v4" fill="none" stroke="#fff" stroke-width="4" stroke-linecap="round"/>
  <path d="M27 31h7.5c5.7 0 9 2.8 9 7.3 0 4.7-3.4 7.7-9 7.7H27V31Zm6.9 10.3c2.4 0 3.8-1 3.8-2.9 0-1.8-1.4-2.7-3.8-2.7h-2.2v5.6h2.2Z" fill="#2457d6"/>
</svg>
